<svg xmlns="http://www.w3.org/2000/svg" xmlns:xlink="http://www.w3.org/1999/xlink" version="1.1" x="0px" y="0px" viewBox="0 0 100 125" style="enable-background:new 0 0 100 100;" xml:space="preserve"><path d="M49.9,3.5c-0.2,0.6-0.4,1.2-0.6,1.8c-0.2,0.5,0.1,0.7,0.6,0.6c1.1-0.2,2-0.9,2.7-1.7c0.4-0.4,0.7-1,1.7-1  c-1.3,1.3-2,2.7-3.6,3.5c-1.9,0.9-3.4,2.4-3.7,4.7c-0.3,1.9-0.4,3.7-0.8,5.6c-0.2,1-0.5,2-1.2,2.8c-0.5,0.5-0.7,1.2-0.5,1.8  c0.3,1.1,0.1,2.1-0.1,3.2c-0.2,0.9-0.1,1,0.7,1.1c0.9,0,1.7,0.4,2.6,0.6c0.7,0.2,1,0.6,1.4,1.3c0.6,1.1,1.1,2.4,1.8,3.5  c0.5,0.9,0.8,1,1.6,0.4c0.9-0.7,2-1.2,3-1.9c1.4-1,3.1-0.8,4.6-0.9c0.5,0,0.9,0.4,1.1,0.9c0.5,1.5,0.7,2.9,0.3,4.4  c-0.2,1-0.3,2-0.3,3.1c0.8-0.1,1.4-0.5,2-0.8c0.6-0.3,1.1-0.4,1.7,0.1c0.6,0.5,1.2,0.6,2,0.5c0.5-0.1,1-0.1,1.6-0.1  c0.8,0,1.2,0.3,1.6,1.1c0.8,1.4,1.1,3.1,2.1,4.4c0.6,0.8,0.8,0.8,1.7,0.2c1.8-1.2,3.4-2.7,5.5-3.3c1-0.3,1.5-1.2,1.7-2.1  c0.4-1.9,2-2.5,3.4-3.4c0.1-0.1,0.3,0,0.4,0.1c0,0.1,0,0.3,0,0.4c-0.2,0.3-0.8,0.5-0.3,1C84.9,36,84.9,37,86,37c1,0,2,0.4,3.1,0.2  c0.3-0.1,0.7,0,0.8,0.4c0.1,0.5-0.4,0.5-0.7,0.5c-1.4,0.1-2.7-0.1-4.1-0.2c-0.5,0-0.8-0.4-1.1-0.8c-0.8-1.1-1.8-1-2.4,0.2  c-0.2,0.5-0.4,1.1-0.6,1.6c-0.3,0.7-0.8,1.2-1.7,1.4c-1,0.2-1.9,0.7-2.8,1.3c-0.5,0.4-1.1,0.7-1.7,1c-1,0.6-1.8,1.4-2.2,2.6  c-0.1,0.4-0.2,0.8-0.5,1c-1.1,0.7-1.3,2-2.3,2.8c-0.5,0.5-0.8,1.4-1,2.1c-0.2,1.4-0.9,2.6-1.5,3.9c-0.6,1.1-0.6,1.1,0.4,2  c-0.7,0.5-0.8,1.1-0.5,1.8c0.2,0.5,0.3,1,0.1,1.5c-0.1,0.5,0,0.8,0.2,1.2C68,62,68,62.4,68,62.9c-0.1,1.4,0.5,2.4,1.6,3.2  c1,0.7,1.6,1.7,1.5,3c-0.5,0.1-0.6-0.2-0.7-0.4c-0.3-0.9-0.9-1.5-1.7-2c-1.1-0.7-1.5-2-1.6-3.3c-0.1-1.1-0.1-1.2-1.2-0.9  c-3.1,0.6-5.5,2.1-7.6,4.5c-1.8,1.9-2.6,4.3-3.8,6.6c-0.7,1.4-0.2,2.7,0.4,4c0.4,0.8,0.9,1.5,0.8,2.5c-0.1,0.7,0.4,1.3,1.3,1.4  c0.7,0.1,1.8,2.1,1.7,2.7c0,0.2-0.2,0.3-0.4,0.4c-0.2,0.1-0.3,0-0.4-0.2c-0.1-0.2-0.2-0.4-0.3-0.6c-0.3-0.7-0.7-1.1-1.4-1.4  c-1.2-0.5-1.1-0.5-1.7,0.6c-0.9,1.8-1.1,3.8-1.4,5.7c-0.1,0.6,0,1.2,0.3,1.7c0.6,0.9,0.9,1.9,1.2,2.9c0.3,0.9,0.3,1.9-0.1,2.8  c-0.1,0.3-0.3,0.5-0.6,0.4c-0.3-0.1-0.3-0.4-0.2-0.7c0.5-1.6-0.1-3-0.8-4.3c-0.5-1-0.6-1.9-0.6-3c0.1-2.3,0.7-4.4,1.7-6.5  c0.8-1.8,0.8-3.6-0.4-5.2c-0.4-0.5-0.4-1.2-0.2-1.8c0.4-1.1-0.1-1.6-0.9-2.2c-2.3-1.7-5-2.6-7.6-3.5c-2-0.7-4.1-1.3-6.2-1.7  c-1.5-0.3-3-0.8-4.6-0.5c-0.7,0.1-1.2-0.2-1.4-0.9c-0.1-0.3-0.2-0.5-0.2-0.8c-0.3-1.5-0.2-3.2-0.8-4.7c-0.3-0.7-0.3-1.6-0.2-2.4  c0.1-1-0.3-1.8-0.7-2.7c-0.9-1.6-2.1-2.9-3.6-3.9c-0.3-0.2-0.4-0.5-0.7-0.8c-0.3,0.3-0.4,0.6-0.4,1c-0.6,2.3-1.9,3.9-4.2,4.8  c-0.4,0.2-0.9,0.3-1.3,0.6C19.3,58,19,59,19.3,59.9c0.7,2,0.6,4-0.1,5.9c-0.4,1-1.1,1.8-1.4,2.8c-0.1,0.2-0.3,0.4-0.5,0.3  c-0.3-0.1-0.3-0.4-0.2-0.6c0.2-0.6,0.4-1.1,0.6-1.8c-1-0.4-2.1-0.2-3.1-0.2c0.1-0.5,0.5-0.5,0.9-0.6c0.7-0.1,1.5-0.3,2.2-0.3  c0.7,0,0.9-0.4,0.9-0.8c0-1.5,0.5-3-0.3-4.4c-0.3-0.4-0.1-1-0.2-1.6c-0.7,0.5-1.1,1.1-1.4,1.8c-0.3,0.9-0.9,1.4-1.8,1.7  c-1.1,0.3-2,1-2.9,1.7c-0.3,0.2-0.5,0.5-1,0.5c-0.2-0.4,0.1-0.6,0.3-0.8c0.9-0.9,1.8-1.6,3-2c0.7-0.2,1.1-0.7,1.4-1.4  c0.6-1.5,1.7-2.4,3.3-2.9c1.7-0.6,3.3-1.2,4.4-2.7c0.5-0.6,0.9-1.2,1.1-1.9c0.1-0.5,0.2-1.1,0.5-1.5c1.1-1.6,1.5-3.5,2.4-5.2  c1.3-2.4,2.4-5,3.6-7.5c0.3-0.7,0.6-1.5,1.1-2.2c0.8-1.2,0.9-2.4,0.5-3.8c-0.4-1.1-0.7-2.1-1-3.2c-0.4-1.7-1.5-2.7-3-3.5  c-1.5-0.8-2.5-3.4-1.8-4.8c0.1-0.2,0.2-0.6,0.6-0.4c0.3,0.1,0.4,0.4,0.3,0.7c-0.4,0.9,0.3,1.6,0.5,2.4c0.1,0.3,0.4,0.6,0.7,0.5  c0.3-0.1,0.4-0.4,0.4-0.6c0.1-1.2,0.7-2.1,1.1-3.2c0.3-0.8,0.6-0.9,1.6-1.1c0.2,0.5-0.2,0.7-0.5,0.9c-0.9,0.8-1.3,1.8-1.2,3  c0,0.5-0.1,0.9-0.1,1.4c0,0.6,0.1,1.1,0.6,1.5c0.6,0.6,1.2,1.3,1.7,2c0.4,0.5,0.7,0.6,1.3,0.2c1-0.8,2.1-1.4,3.2-2  c1.3-0.8,2.4-1.8,3.4-2.9c1.2-1.2,1.9-2.7,3.2-3.7c0.4-0.3,0.7-0.7,0.8-1.1c0.3-1.4,0.9-2.7,1-4.1c0.1-1.4,0.3-2.7,0.7-4  c0.2-0.6,0.4-1.2,0.9-1.6c1-0.8,1.2-2,1.3-3.1c0-0.5,0.1-1,0.4-1.5C49.1,3.7,49.4,3.4,49.9,3.5z M56.2,56.1c1.3,0.2,2.7,0.1,4,0.1  c1.4,0.1,1.6-0.2,1.3-1.6c-0.3-1.5-0.1-3,0-4.5c0.1-1,0.2-2.1,0-3.1c-0.2-0.7-0.3-1.5-0.2-2.2c0.1-0.7-0.3-0.8-0.8-0.8  c-2.1,0.1-4.1,0-6.2,0.1c-3.7,0.2-7.3,0.3-11,0.4c-1,0-1.1,0.2-1,1.2c0.1,0.9,0,1.9-0.1,2.8c-0.2,1.1-0.2,2.2-0.1,3.3  c0,1.2,0.2,2.3,0.1,3.5c0,0.7,0.3,0.9,0.9,0.9c2.5,0,5.1,0.1,7.6,0C52.5,56.2,54.3,56.1,56.2,56.1z M49.5,60.1  c-0.1-0.5-0.1-1-0.2-1.5c-0.1-1.2-0.1-1.2-1.3-1.2c-2.6-0.1-5.2,0.4-7.8,0.4c-2.3-0.1-4.7,0.1-7.1,0.2c-0.9,0-1.1,0.1-1,1.1  c0.1,1.2,0.3,2.3,0.6,3.5c0.2,0.9,0.2,1.9,0.5,2.8c0.2,0.5,0.4,0.8,1,0.8c0.2,0,0.5,0.1,0.7,0.1c2.5,0.3,4.9,0.7,7.3,1.6  c0.7,0.3,1.4,0.6,2.2,0.5c1.4-0.1,2.7,0,4.1,0.1c1,0,1.1,0,1-1.1c-0.1-0.8-0.4-1.6-0.2-2.4C49.6,63.2,49.7,61.7,49.5,60.1z   M29.8,43.5c2.2,0.3,4.3,0.1,6.4,0c4.1-0.1,8.1-0.7,12.2-0.6c0.6,0,0.8-0.3,0.8-0.8c-0.1-2.3-0.1-4.7-0.4-7c-0.1-1-0.2-1.1-1.2-1.1  c-2,0.1-3.9-0.2-5.9-0.1c-2.2,0.1-4.5,0-6.8,0.4c-0.7,0.1-1.1,0.3-1.4,1c-1.1,2-2.1,4.1-3,6.2C30.4,42.2,29.8,42.7,29.8,43.5z   M34.5,44.6c-1.5,0.1-3.1-0.1-4.6,0.2c-0.7,0.1-1.1,0.4-1.4,1c-0.4,1-0.8,2-1.1,3c-0.3,1.1-0.1,2,0.9,2.7c1.3,1,2.4,2.3,3.1,3.8  c0.4,0.9,1,1.2,1.9,1.1c2.2-0.1,4.3-0.1,6.5-0.2c1.3,0,1.4-0.3,1.1-1.6c-0.2-0.7-0.6-1.4-0.3-2.2c0.5-1.4,0.4-2.8,0.4-4.2  c0.1-0.9-0.1-1.8,0.1-2.7c0.2-0.9,0-1.1-1-1.2C38.2,44.6,36.3,44.4,34.5,44.6z M52.8,33.7c-0.5,0-1.3,0.1-2.2,0.2  c-0.3,0-0.7,0.1-0.7,0.6c0.1,1.5-0.1,2.9,0,4.4c0.1,1.1,0.4,2.1,0.3,3.2c0,0.5,0.2,0.8,0.7,0.8c2.1-0.1,4.1,0.3,6.2,0.2  c1.2-0.1,2.4-0.2,3.5,0c3,0.4,6-0.1,9-0.1c0.7,0,0.8-0.3,0.5-0.9c-0.5-1.1-1-2.2-1.2-3.5c-0.1-0.5-0.4-0.7-0.9-0.7  c-0.3,0-0.7-0.1-1,0.1c-1,0.5-1.9,0.1-2.8-0.4c-0.6-0.3-1.2-0.3-1.7,0c-0.3,0.2-0.7,0.3-1,0.5c-1.2,0.5-1.7,0.2-1.6-1.1  c0-0.7,0.2-1.5,0.3-2.2c0.1-0.9,0-1.1-0.9-1C57.3,34,55.3,33.6,52.8,33.7z M54.2,57.2C54.2,57.2,54.2,57.1,54.2,57.2  c-0.7-0.1-1.4-0.1-2.1,0c-1.4,0.1-1.6,0.2-1.5,1.7c0,0.9,0,1.8,0.1,2.7c0.2,2-0.1,3.9,0.2,5.9c0.1,0.7,0.3,1,1.1,0.9  c1.2-0.1,2.4-0.1,3.5-0.1c0.6,0,0.9-0.1,1.3-0.6c1.2-1.6,2.4-3.2,4.3-4.2c1.3-0.7,2.7-1.3,4.1-1.7c0.5-0.1,1-0.2,1.1-0.7  c0.3-1,0.7-2,0.3-3c-0.1-0.4-0.3-0.6-0.8-0.6c-1,0-2.1-0.1-3.1-0.1C59.8,57.3,57,57.2,54.2,57.2z M64.2,56.1  c0.5-0.1,1.2-0.2,1.8-0.2c0.3,0,0.5-0.2,0.6-0.5c0.4-1.4,1.2-2.7,1.5-4.1c0.2-1.3,0.8-2.4,1.5-3.5c0.5-0.8,1-1.6,1.4-2.4  c0.4-0.7,0.2-1.2-0.6-1.2c-2.1,0-4.2,0.2-6.3-0.1c-0.9-0.1-1.2,0.4-1.1,1.3c0.1,1,0.2,2-0.1,3.1c-0.1,0.4,0,0.9,0,1.4  c0,1.6,0.5,3.1,0,4.7C62.4,55.7,62.8,56.1,64.2,56.1z M40.9,24.6c-0.7,0.2-1.1,0.8-1.6,1.2c-1.7,1.1-3.4,2.1-5.1,3  c-0.4,0.2-1,0.5-1,1.1c0,0.9,0.1,1.9,0.5,2.7c0.4,0.7,1.2,0.3,1.8,0.4c0.2,0,0.4,0,0.6,0c1.5,0,3,0.1,4.5,0c1,0,1.4-0.5,1-1.5  c-0.2-0.5-0.2-1-0.2-1.5c0-1.3-0.4-2.5-0.1-3.8C41.4,25.7,41.2,25.1,40.9,24.6z M50.4,32.3c-1-0.9-1.3-2.1-1.7-3.2  c-0.5-1.3-1.3-2.4-3-2.2c-0.2,0-0.5-0.1-0.7-0.1c-2.1-0.2-2.1-0.2-1.6-2.3c0.2-0.9,0.3-1.7-0.1-2.6c-1,0.6-1.1,1.4-1.1,2.3  c0,0.6,0,1.1,0.1,1.7c0.2,1.1-0.2,2.1,0.1,3.2c0.2,0.9,0.3,1.7,0.2,2.6c-0.2,0.8,0.3,1.2,1,1.1c1.9-0.3,3.8-0.2,5.8-0.3  C49.6,32.6,50,32.8,50.4,32.3z M52.5,32.7c0.6,0.2,1.1,0.1,1.7,0c0.6-0.1,1.2-0.2,1.8-0.2c1.3-0.1,2.5-0.2,3.8-0.1  c0.4,0,0.8,0.1,0.9-0.5c0.1-1-0.9-2.1-1.9-2.1c-2.5-0.1-4.5,1.1-6.3,2.7C52.4,32.5,52.5,32.6,52.5,32.7z M48.6,69.6  c1.6,0.8,3.1,1.5,4.4,2.6c0.3,0.3,0.8,0.5,1.1,0.1c0.5-0.8,0.9-1.6,1.3-2.5c0.2-0.5-0.1-0.6-0.6-0.6c-1.2,0.1-2.3,0.1-3.5,0.2  C50.5,69.4,49.6,69.1,48.6,69.6z"/><text x="0" y="115" fill="#000000" font-size="5px" font-weight="bold" font-family="'Helvetica Neue', Helvetica, Arial-Unicode, Arial, Sans-serif">Created by Alex Muravev</text><text x="0" y="120" fill="#000000" font-size="5px" font-weight="bold" font-family="'Helvetica Neue', Helvetica, Arial-Unicode, Arial, Sans-serif">from the Noun Project</text></svg>